<svg xmlns="http://www.w3.org/2000/svg" viewBox="-2.049999952316284 10.550000190734863 45.54999923706055 31.60000228881836" data-asc="0.83" width="45.54999923706055" height="31.60000228881836"><defs/><g fill="#ffffff"><g transform="translate(0, 0)"><path d="M17.70 41.50L15.85 33.40L3.95 33.40L2.15 41.50L-2.05 41.50Q-1.20 38.20-0.15 34.35Q0.90 30.50 2.13 26.45Q3.35 22.40 4.70 18.32Q6.05 14.25 7.55 10.55L12.65 10.55Q14.10 14.25 15.43 18.32Q16.75 22.40 17.93 26.45Q19.10 30.50 20.15 34.35Q21.20 38.20 22.05 41.50L17.70 41.50M9.95 14.15Q8.80 17.30 7.45 21.45Q6.10 25.60 4.90 30L14.90 30Q13.75 25.50 12.43 21.32Q11.10 17.15 9.95 14.15ZM28.85 14.05L28.85 10.55L43.50 10.55L43.50 31.55Q43.50 33.75 43.03 35.70Q42.55 37.65 41.38 39.08Q40.20 40.50 38.23 41.33Q36.25 42.15 33.25 42.15Q30.25 42.15 28.20 41.30Q26.15 40.45 25.20 39.65L26.85 36.30Q27.80 37 29.38 37.80Q30.95 38.60 33.05 38.60Q36.25 38.60 37.83 36.90Q39.40 35.20 39.40 31.15L39.40 14.05L28.85 14.05Z"/></g></g></svg>